<svg width="125" height="37" viewBox="0 0 125 37" fill="none" xmlns="http://www.w3.org/2000/svg">
<path d="M115.174 28.9488C113.401 28.9488 111.846 28.527 110.508 27.6832C109.178 26.8395 108.138 25.6591 107.388 24.142C106.647 22.625 106.276 20.8523 106.276 18.8238C106.276 16.7784 106.647 14.9929 107.388 13.4673C108.138 11.9417 109.178 10.7571 110.508 9.91333C111.846 9.06958 113.401 8.64771 115.174 8.64771C116.947 8.64771 118.498 9.06958 119.827 9.91333C121.165 10.7571 122.205 11.9417 122.947 13.4673C123.697 14.9929 124.072 16.7784 124.072 18.8238C124.072 20.8523 123.697 22.625 122.947 24.142C122.205 25.6591 121.165 26.8395 119.827 27.6832C118.498 28.527 116.947 28.9488 115.174 28.9488ZM115.174 26.2386C116.52 26.2386 117.628 25.8934 118.498 25.2031C119.367 24.5128 120.01 23.6051 120.428 22.4801C120.846 21.3551 121.055 20.1363 121.055 18.8238C121.055 17.5113 120.846 16.2883 120.428 15.1548C120.01 14.0213 119.367 13.1051 118.498 12.4062C117.628 11.7074 116.52 11.3579 115.174 11.3579C113.827 11.3579 112.719 11.7074 111.85 12.4062C110.981 13.1051 110.337 14.0213 109.92 15.1548C109.502 16.2883 109.293 17.5113 109.293 18.8238C109.293 20.1363 109.502 21.3551 109.92 22.4801C110.337 23.6051 110.981 24.5128 111.85 25.2031C112.719 25.8934 113.827 26.2386 115.174 26.2386Z" fill="white"/>
<path d="M95.5565 28.9488C93.6644 28.9488 92.0323 28.5312 90.6602 27.696C89.2965 26.8523 88.244 25.6761 87.5025 24.1676C86.7695 22.6505 86.4031 20.8863 86.4031 18.875C86.4031 16.8636 86.7695 15.0909 87.5025 13.5568C88.244 12.0142 89.2752 10.8125 90.5963 9.95168C91.9258 9.08236 93.4769 8.64771 95.2497 8.64771C96.2724 8.64771 97.2823 8.81816 98.2795 9.15907C99.2767 9.49998 100.184 10.054 101.003 10.821C101.821 11.5795 102.473 12.5852 102.958 13.838C103.444 15.0909 103.687 16.6335 103.687 18.4659V19.7443H88.5508V17.1363H100.619C100.619 16.0284 100.397 15.0397 99.9542 14.1704C99.5195 13.3011 98.8974 12.615 98.0877 12.1122C97.2866 11.6094 96.3406 11.3579 95.2497 11.3579C94.048 11.3579 93.0082 11.6562 92.1303 12.2528C91.261 12.8409 90.592 13.6079 90.1232 14.554C89.6545 15.5 89.4201 16.5142 89.4201 17.5966V19.3352C89.4201 20.8182 89.6758 22.0753 90.1872 23.1065C90.7071 24.1292 91.4272 24.9091 92.3477 25.446C93.2681 25.9744 94.3377 26.2386 95.5565 26.2386C96.3491 26.2386 97.065 26.1278 97.7042 25.9062C98.3519 25.6761 98.9102 25.3352 99.3789 24.8835C99.8477 24.4233 100.21 23.8522 100.466 23.1704L103.38 23.9886C103.074 24.9773 102.558 25.8466 101.833 26.5966C101.109 27.338 100.214 27.9176 99.1488 28.3352C98.0835 28.7443 96.886 28.9488 95.5565 28.9488Z" fill="white"/>
<path d="M74.3922 36.3125C72.9349 36.3125 71.682 36.125 70.6337 35.75C69.5854 35.3835 68.7118 34.8977 68.013 34.2926C67.3226 33.696 66.7729 33.0568 66.3638 32.375L68.7672 30.6875C69.04 31.0454 69.3851 31.4545 69.8028 31.9148C70.2204 32.3835 70.7914 32.7883 71.5158 33.1292C72.2488 33.4787 73.2076 33.6534 74.3922 33.6534C75.9775 33.6534 77.2857 33.2699 78.317 32.5028C79.3482 31.7358 79.8638 30.5341 79.8638 28.8977V24.9091H79.6082C79.3866 25.267 79.0712 25.7102 78.6621 26.2386C78.2616 26.7585 77.682 27.223 76.9235 27.6321C76.1735 28.0327 75.1593 28.2329 73.8809 28.2329C72.2957 28.2329 70.8724 27.8579 69.611 27.1079C68.3582 26.3579 67.3653 25.267 66.6323 23.8352C65.9079 22.4034 65.5457 20.6647 65.5457 18.6193C65.5457 16.6079 65.8993 14.8565 66.6067 13.365C67.3141 11.865 68.2985 10.7059 69.5599 9.88776C70.8212 9.06106 72.2786 8.64771 73.932 8.64771C75.2104 8.64771 76.2246 8.86077 76.9746 9.28691C77.7332 9.70452 78.3127 10.1818 78.7133 10.7187C79.1224 11.2471 79.4377 11.6818 79.6593 12.0227H79.9661V8.90339H82.8809V29.1023C82.8809 30.7898 82.4974 32.1619 81.7303 33.2187C80.9718 34.2841 79.9491 35.0639 78.6621 35.5582C77.3837 36.0611 75.9604 36.3125 74.3922 36.3125ZM74.29 25.5227C75.5002 25.5227 76.5229 25.2457 77.3582 24.6917C78.1934 24.1378 78.8283 23.3409 79.263 22.3011C79.6976 21.2613 79.915 20.017 79.915 18.5682C79.915 17.1534 79.7019 15.9048 79.2758 14.8224C78.8496 13.74 78.219 12.892 77.3837 12.2784C76.5485 11.6648 75.5172 11.3579 74.29 11.3579C73.0116 11.3579 71.9462 11.6818 71.094 12.3295C70.2502 12.9773 69.6153 13.8466 69.1891 14.9375C68.7715 16.0284 68.5627 17.2386 68.5627 18.5682C68.5627 19.9318 68.7758 21.1378 69.2019 22.1861C69.6366 23.2258 70.2758 24.044 71.1195 24.6406C71.9718 25.2287 73.0286 25.5227 74.29 25.5227Z" fill="white"/>
<path d="M54.826 28.9488C52.934 28.9488 51.3019 28.5312 49.9297 27.696C48.5661 26.8523 47.5135 25.6761 46.772 24.1676C46.0391 22.6505 45.6726 20.8863 45.6726 18.875C45.6726 16.8636 46.0391 15.0909 46.772 13.5568C47.5135 12.0142 48.5448 10.8125 49.8658 9.95168C51.1953 9.08236 52.7465 8.64771 54.5192 8.64771C55.5419 8.64771 56.5519 8.81816 57.549 9.15907C58.5462 9.49998 59.4539 10.054 60.272 10.821C61.0902 11.5795 61.7422 12.5852 62.228 13.838C62.7138 15.0909 62.9567 16.6335 62.9567 18.4659V19.7443H47.8203V17.1363H59.8885C59.8885 16.0284 59.6669 15.0397 59.2237 14.1704C58.7891 13.3011 58.1669 12.615 57.3573 12.1122C56.5561 11.6094 55.6101 11.3579 54.5192 11.3579C53.3175 11.3579 52.2777 11.6562 51.3999 12.2528C50.5306 12.8409 49.8615 13.6079 49.3928 14.554C48.924 15.5 48.6897 16.5142 48.6897 17.5966V19.3352C48.6897 20.8182 48.9453 22.0753 49.4567 23.1065C49.9766 24.1292 50.6968 24.9091 51.6172 25.446C52.5377 25.9744 53.6073 26.2386 54.826 26.2386C55.6186 26.2386 56.3345 26.1278 56.9737 25.9062C57.6215 25.6761 58.1797 25.3352 58.6485 24.8835C59.1172 24.4233 59.4794 23.8522 59.7351 23.1704L62.6499 23.9886C62.3431 24.9773 61.8274 25.8466 61.103 26.5966C60.3786 27.338 59.4837 27.9176 58.4183 28.3352C57.353 28.7443 56.1556 28.9488 54.826 28.9488Z" fill="white"/>
<path d="M39.4432 8.90341C39.2898 7.60796 38.6676 6.60227 37.5767 5.88636C36.4858 5.17045 35.1477 4.8125 33.5625 4.8125C32.4034 4.8125 31.3892 5 30.5199 5.375C29.6591 5.75 28.9858 6.26562 28.5 6.92188C28.0227 7.57812 27.7841 8.32386 27.7841 9.15909C27.7841 9.85795 27.9503 10.4588 28.2827 10.9616C28.6236 11.456 29.0582 11.8693 29.5866 12.2017C30.1151 12.5256 30.669 12.794 31.2486 13.0071C31.8281 13.2116 32.3608 13.3778 32.8466 13.5057L35.5057 14.2216C36.1875 14.4006 36.946 14.6477 37.7812 14.9631C38.625 15.2784 39.4304 15.7088 40.1974 16.2543C40.973 16.7912 41.6122 17.4815 42.1151 18.3253C42.6179 19.169 42.8693 20.2045 42.8693 21.4318C42.8693 22.8466 42.4986 24.125 41.7571 25.267C41.0241 26.4091 39.9503 27.3168 38.5355 27.9901C37.1293 28.6634 35.4205 29 33.4091 29C31.5341 29 29.9105 28.6974 28.5384 28.0923C27.1747 27.4872 26.1009 26.6435 25.3168 25.5611C24.5412 24.4787 24.1023 23.2216 24 21.7898H27.2727C27.358 22.7784 27.6903 23.5966 28.2699 24.2443C28.858 24.8835 29.5994 25.3608 30.4943 25.6761C31.3977 25.983 32.3693 26.1364 33.4091 26.1364C34.6193 26.1364 35.706 25.9403 36.669 25.5483C37.6321 25.1477 38.3949 24.5938 38.9574 23.8864C39.5199 23.1705 39.8011 22.3352 39.8011 21.3807C39.8011 20.5114 39.5582 19.804 39.0724 19.2585C38.5866 18.7131 37.9474 18.2699 37.1548 17.929C36.3622 17.5881 35.5057 17.2898 34.5852 17.0341L31.3636 16.1136C29.3182 15.5256 27.6989 14.6861 26.5057 13.5952C25.3125 12.5043 24.7159 11.0767 24.7159 9.3125C24.7159 7.84659 25.1122 6.56818 25.9048 5.47727C26.706 4.37784 27.7798 3.52557 29.1264 2.92045C30.4815 2.30682 31.9943 2 33.6648 2C35.3523 2 36.8523 2.30256 38.1648 2.90767C39.4773 3.50426 40.517 4.32244 41.2841 5.36222C42.0597 6.40199 42.4688 7.58239 42.5114 8.90341H39.4432Z" fill="white"/>
<path d="M8.49995 0L16.7272 13.5H0.272705L8.49995 0Z" fill="#D9D9D9"/>
<path d="M8.49195 32.3773L0.829764 18.5488L17.2702 19.2289L8.49195 32.3773Z" fill="#D9D9D9"/>
</svg>
